<?xml version="1.0" standalone="no"?>
<!-- Generator: Adobe Fireworks 10, Export SVG Extension by Aaron Beall (http://fireworks.abeall.com) . Version: 0.6.1  -->
<!DOCTYPE svg PUBLIC "-//W3C//DTD SVG 1.1//EN" "http://www.w3.org/Graphics/SVG/1.1/DTD/svg11.dtd">
<svg id="Untitled-%u0421%u0442%u0440%u0430%u043D%u0438%u0446%u0430%201" viewBox="0 0 71 71" style="background-color:#ffffff00" version="1.1"
	xmlns="http://www.w3.org/2000/svg" xmlns:xlink="http://www.w3.org/1999/xlink" xml:space="preserve"
	x="0px" y="0px" width="71px" height="71px"
>
	<g id="%u0421%u043B%u043E%u0439%201">
		<path id="Ellipse" d="M 2 35.5 C 2 16.9982 16.9982 2 35.5 2 C 54.0018 2 69 16.9982 69 35.5 C 69 54.0018 54.0018 69 35.5 69 C 16.9982 69 2 54.0018 2 35.5 Z" stroke="#454545" stroke-width="2" fill="none"/>
		<path d="M 36.6082 25.5945 L 46.8454 25.5945 C 46.8454 25.5945 46.8454 25.3951 46.8454 25.0709 C 46.8454 24.7468 46.6229 23.9988 46.4003 23.5001 C 46.1778 23.0014 45.5349 22.8768 45.3618 22.8269 C 45.1887 22.777 44.793 22.6523 44.8425 22.2285 C 44.8919 21.8046 44.4716 19.9096 43.5814 18.3387 C 42.6912 16.7679 39.6497 15.571 39.6497 15.571 C 39.6497 15.571 39.6497 15.3716 39.2787 16.0947 C 38.9078 16.8177 38.0918 21.1812 38.0918 21.1812 C 38.0918 21.1812 38.0547 16.5809 38.0918 15.2719 C 38.1289 13.9628 37.3871 14.0002 36.9791 14.0002 C 36.5711 14.0002 36.6082 14.0002 36.6082 14.0002 L 36.4589 14.0001 C 36.4589 14.0001 36.496 14.0001 36.088 14.0001 C 35.6799 14.0001 34.938 13.9627 34.9751 15.2718 C 35.0122 16.5808 34.9751 21.1812 34.9751 21.1812 C 34.9751 21.1812 34.1591 16.8177 33.7881 16.0946 C 33.4172 15.3715 33.4172 15.571 33.4172 15.571 C 33.4172 15.571 30.3754 16.7678 29.4851 18.3387 C 28.5949 19.9095 28.1745 21.8046 28.2239 22.2285 C 28.2734 22.6523 27.8777 22.777 27.7046 22.8268 C 27.5315 22.8767 26.8885 23.0014 26.666 23.5001 C 26.4434 23.9988 26.2208 24.7468 26.2208 25.0709 C 26.2208 25.3951 26.2208 25.5945 26.2208 25.5945 L 36.4589 25.5945 L 36.6082 25.5945 Z" stroke="#4a4a4a" stroke-width="2" fill="none"/>
		<path d="M 36.7557 53 C 36.7557 53 39.0754 52.9626 42.5457 52.7008 C 46.016 52.439 49.0594 51.0739 50.2657 50.0079 C 51.4719 48.942 51.0637 46.567 49.9688 44.7717 C 48.8738 42.9764 44.4014 40.9006 42.6941 40.2087 C 40.9868 39.5168 40.2631 38.8062 40.2445 37.7402 C 40.226 36.6743 40.7641 36.0945 42.323 34.2245 C 43.8818 32.3544 43.7334 28.0906 43.7334 28.0906 L 29.2626 28.0906 C 29.2626 28.0906 29.1142 32.3544 30.6721 34.2245 C 32.2301 36.0945 32.768 36.6743 32.7495 37.7402 C 32.7309 38.8062 32.0076 39.5168 30.3012 40.2087 C 28.5949 40.9006 24.125 42.9764 23.0307 44.7717 C 21.9364 46.567 21.5284 48.942 22.7339 50.0079 C 23.9395 51.0739 26.9813 52.439 30.4496 52.7008 C 33.9179 52.9626 36.2364 53 36.2364 53 L 36.7557 53 Z" stroke="#4a4a4a" stroke-width="2" fill="none"/>
	</g>
</svg>