<?xml version="1.0" standalone="no"?>
<!-- Generator: Adobe Fireworks 10, Export SVG Extension by Aaron Beall (http://fireworks.abeall.com) . Version: 0.6.1  -->
<!DOCTYPE svg PUBLIC "-//W3C//DTD SVG 1.1//EN" "http://www.w3.org/Graphics/SVG/1.1/DTD/svg11.dtd">
<svg id="Untitled-%u0421%u0442%u0440%u0430%u043D%u0438%u0446%u0430%201" viewBox="0 0 71 71" style="background-color:#ffffff00" version="1.1"
	xmlns="http://www.w3.org/2000/svg" xmlns:xlink="http://www.w3.org/1999/xlink" xml:space="preserve"
	x="0px" y="0px" width="71px" height="71px"
>
	<g id="%u0421%u043B%u043E%u0439%201">
		<path d="M 29.0257 41.7441 L 29.0257 34.6992 C 29.0257 34.6992 38.4734 29.4891 40.0288 26.2331 C 41.5842 22.9771 43.082 19.1879 44.8679 19.0106 C 46.6537 18.8328 48.3243 20.9049 47.2874 24.1609 C 46.2504 27.4172 44.0038 31.5612 44.0038 31.5612 C 44.0038 31.5612 53.3363 33.4556 52.9906 36.3568 C 52.645 39.2574 50.6287 40.6783 50.6287 40.6783 C 50.6287 40.6783 46.5386 51.5716 45.1559 52.4004 C 43.7733 53.2292 40.4897 53.17 35.9962 52.4004 C 31.5028 51.6308 29.1408 50.269 29.1408 50.269 L 29.0257 41.7441 Z" stroke="#454545" stroke-width="2" fill="none"/>
		<path d="M 21.7663 34.8344 L 21.7663 34.8344 C 23.294 34.8344 24.5326 36.103 24.5326 37.6679 L 24.5326 47.9964 C 24.5326 49.5613 23.294 50.8297 21.7663 50.8297 L 21.7663 50.8297 C 20.2385 50.8297 19 49.5613 19 47.9964 L 19 37.6679 C 19 36.103 20.2385 34.8344 21.7663 34.8344 Z" stroke="#454545" stroke-width="2" fill="none"/>
		<path id="Ellipse" d="M 2 35.5 C 2 16.9982 16.9982 2 35.5 2 C 54.0018 2 69 16.9982 69 35.5 C 69 54.0018 54.0018 69 35.5 69 C 16.9982 69 2 54.0018 2 35.5 Z" stroke="#454545" stroke-width="2" fill="none"/>
	</g>
</svg>