<?xml version="1.0" standalone="no"?>
<!-- Generator: Adobe Fireworks 10, Export SVG Extension by Aaron Beall (http://fireworks.abeall.com) . Version: 0.6.1  -->
<!DOCTYPE svg PUBLIC "-//W3C//DTD SVG 1.1//EN" "http://www.w3.org/Graphics/SVG/1.1/DTD/svg11.dtd">
<svg id="Untitled-%u0421%u0442%u0440%u0430%u043D%u0438%u0446%u0430%201" viewBox="0 0 71 71" style="background-color:#ffffff00" version="1.1"
	xmlns="http://www.w3.org/2000/svg" xmlns:xlink="http://www.w3.org/1999/xlink" xml:space="preserve"
	x="0px" y="0px" width="71px" height="71px"
>
	<g id="%u0421%u043B%u043E%u0439%201">
		<path id="Ellipse" d="M 2 35.5 C 2 16.9982 16.9982 2 35.5 2 C 54.0018 2 69 16.9982 69 35.5 C 69 54.0018 54.0018 69 35.5 69 C 16.9982 69 2 54.0018 2 35.5 Z" stroke="#454545" stroke-width="2" fill="none"/>
		<path d="M 33.1827 56.9723 C 33.1827 56.9723 41.6206 54.3967 48.1724 47.1462 C 54.7241 39.8958 57 33.7446 57 33.7446 C 57 33.7446 59 30.75 55.2205 26.6859 C 53.6419 24.9885 52.6891 24.5505 51.349 25.3948 C 50.0088 26.239 46.8322 29.5166 46.187 31.5527 C 45.5417 33.5888 45.3432 33.6881 45.9884 34.2344 C 46.6337 34.7806 48.0731 36.1711 48.3709 36.4194 C 48.6687 36.6677 48.8176 40.144 44.5986 43.7693 C 40.3797 47.3945 38.6425 48.8347 37.4513 49.0333 C 36.2601 49.2319 36.5578 48.785 36.1608 48.1395 C 35.7637 47.4938 34.9199 45.3088 33.1827 45.6564 C 31.4455 46.004 26.631 47.4442 25.4397 49.8279 C 24.2485 52.2117 25.7375 54.496 26.8295 55.2906 C 27.9214 56.0851 31.7433 57.2703 33.1827 56.9723 Z" stroke="#454545" stroke-width="2" fill="none"/>
		<path d="M 36.6196 31.7228 C 37.0649 30.769 37.3088 29.7346 37.3088 28.6539 C 37.3088 23.8744 32.5387 20 26.6544 20 C 20.7701 20 16 23.8744 16 28.6539 C 16 33.4335 20.7701 37.3079 26.6544 37.3079 C 28.5978 37.3079 30.4195 36.8853 31.9881 36.1472 " stroke="#4b4d4e" stroke-width="2" fill="none"/>
		<path d="M 31.9287 36.1627 C 31.9287 36.1627 34.2436 38.8789 39 37.7061 C 39 37.7061 38.6644 37.7391 36.9283 35.6793 C 35.2795 33.7232 35.6314 33.3171 35.6314 33.3171 C 36.0249 32.8181 36.3572 32.2845 36.6196 31.7228 " stroke="#4b4d4e" stroke-width="2" fill="none"/>
	</g>
</svg>